<svg width="310" height="27" viewBox="0 0 310 27" fill="none" xmlns="http://www.w3.org/2000/svg">
<path d="M17.5585 1.18182V23H15.0017L3.11252 5.86932H2.89945V23H0.257402V1.18182H2.81422L14.746 18.3551H14.9591V1.18182H17.5585ZM37.1635 1.18182H39.8055V15.6278C39.8055 17.1193 39.454 18.451 38.7508 19.6229C38.0548 20.7876 37.0711 21.7074 35.7998 22.3821C34.5285 23.0497 33.0371 23.3835 31.3254 23.3835C29.6138 23.3835 28.1223 23.0497 26.851 22.3821C25.5797 21.7074 24.5925 20.7876 23.8893 19.6229C23.1933 18.451 22.8453 17.1193 22.8453 15.6278V1.18182H25.4873V15.4148C25.4873 16.4801 25.7217 17.4283 26.1905 18.2592C26.6592 19.0831 27.3268 19.733 28.1933 20.2088C29.0669 20.6776 30.1109 20.9119 31.3254 20.9119C32.5399 20.9119 33.5839 20.6776 34.4575 20.2088C35.3311 19.733 35.9987 19.0831 36.4604 18.2592C36.9291 17.4283 37.1635 16.4801 37.1635 15.4148V1.18182ZM46.36 1.18182L51.985 10.2585H52.1555L57.7805 1.18182H60.8913L54.0305 12.0909L60.8913 23H57.7805L52.1555 14.0938H51.985L46.36 23H43.2492L50.2805 12.0909L43.2492 1.18182H46.36ZM63.1365 3.52557V1.18182H79.5001V3.52557H72.6393V23H69.9973V3.52557H63.1365ZM99.3874 0.159089L92.3561 26.2812H90.055L97.0862 0.159089H99.3874Z" fill="white"/>
<path d="M108.906 1.18182H114.595L120.604 15.8409H120.859L126.868 1.18182H132.557V23H128.082V8.79901H127.901L122.255 22.8935H119.208L113.562 8.74574H113.381V23H108.906V1.18182ZM136.357 23V1.18182H151.059V4.98508H140.97V10.1839H150.303V13.9872H140.97V19.1967H151.102V23H136.357ZM159.339 1.18182V23H154.727V1.18182H159.339ZM163.135 23V1.18182H167.748V19.1967H177.101V23H163.135ZM184.769 1.18182V23H180.156V1.18182H184.769ZM200.4 7.45668C200.315 6.5973 199.949 5.92969 199.303 5.45383C198.657 4.97798 197.78 4.74006 196.672 4.74006C195.919 4.74006 195.283 4.84659 194.765 5.05966C194.246 5.26562 193.848 5.55327 193.572 5.92258C193.302 6.2919 193.167 6.71094 193.167 7.17969C193.152 7.57031 193.234 7.91122 193.412 8.20241C193.596 8.49361 193.848 8.74574 194.168 8.95881C194.488 9.16477 194.857 9.34588 195.276 9.50213C195.695 9.65128 196.143 9.77912 196.618 9.88565L198.579 10.3544C199.53 10.5675 200.404 10.8516 201.199 11.2067C201.995 11.5618 202.684 11.9986 203.266 12.517C203.848 13.0355 204.299 13.6463 204.619 14.3494C204.946 15.0526 205.113 15.8587 205.12 16.7678C205.113 18.103 204.772 19.2607 204.097 20.2408C203.429 21.2138 202.464 21.9702 201.199 22.5099C199.942 23.0426 198.426 23.3089 196.65 23.3089C194.889 23.3089 193.355 23.0391 192.048 22.4993C190.748 21.9595 189.733 21.1605 189.001 20.1023C188.277 19.0369 187.897 17.7195 187.861 16.1499H192.325C192.375 16.8814 192.584 17.4922 192.954 17.9822C193.33 18.4652 193.831 18.831 194.456 19.0795C195.088 19.321 195.802 19.4418 196.597 19.4418C197.378 19.4418 198.057 19.3281 198.632 19.1009C199.214 18.8736 199.665 18.5575 199.985 18.1527C200.304 17.7479 200.464 17.2827 200.464 16.7571C200.464 16.267 200.319 15.8551 200.027 15.5213C199.743 15.1875 199.324 14.9034 198.77 14.669C198.223 14.4347 197.552 14.2216 196.757 14.0298L194.381 13.4332C192.542 12.9858 191.089 12.2862 190.024 11.3345C188.959 10.3828 188.429 9.10085 188.437 7.48864C188.429 6.16761 188.781 5.01349 189.491 4.02628C190.209 3.03906 191.192 2.26847 192.442 1.71449C193.692 1.16051 195.113 0.883522 196.704 0.883522C198.323 0.883522 199.736 1.16051 200.944 1.71449C202.158 2.26847 203.103 3.03906 203.777 4.02628C204.452 5.01349 204.8 6.15696 204.821 7.45668H200.4ZM208.223 23V1.18182H222.924V4.98508H212.836V10.1839H222.168V13.9872H212.836V19.1967H222.967V23H208.223ZM230.352 23H225.409L232.941 1.18182H238.886L246.407 23H241.464L235.999 6.16761H235.828L230.352 23ZM230.043 14.424H241.72V18.0249H230.043V14.424ZM249.033 23V1.18182H257.641C259.289 1.18182 260.695 1.47656 261.86 2.06605C263.032 2.64844 263.923 3.47585 264.534 4.5483C265.152 5.61364 265.461 6.86719 265.461 8.30895C265.461 9.75781 265.148 11.0043 264.523 12.0483C263.898 13.0852 262.993 13.8807 261.807 14.4347C260.628 14.9886 259.2 15.2656 257.524 15.2656H251.76V11.5582H256.778C257.659 11.5582 258.39 11.4375 258.973 11.196C259.555 10.9545 259.988 10.5923 260.272 10.1094C260.564 9.62642 260.709 9.02628 260.709 8.30895C260.709 7.58452 260.564 6.97372 260.272 6.47656C259.988 5.9794 259.552 5.60298 258.962 5.3473C258.38 5.08452 257.645 4.95312 256.757 4.95312H253.646V23H249.033ZM260.816 13.071L266.238 23H261.146L255.841 13.071H260.816ZM287.971 8.82031H283.305C283.22 8.21662 283.046 7.6804 282.783 7.21165C282.52 6.73579 282.183 6.33097 281.771 5.99716C281.359 5.66335 280.883 5.40767 280.344 5.23011C279.811 5.05256 279.232 4.96378 278.607 4.96378C277.478 4.96378 276.494 5.24432 275.656 5.8054C274.818 6.35937 274.168 7.16903 273.706 8.23438C273.245 9.29261 273.014 10.5781 273.014 12.0909C273.014 13.6463 273.245 14.9531 273.706 16.0114C274.175 17.0696 274.829 17.8686 275.667 18.4084C276.505 18.9482 277.474 19.218 278.575 19.218C279.193 19.218 279.765 19.1364 280.29 18.973C280.823 18.8097 281.295 18.5717 281.707 18.2592C282.119 17.9396 282.46 17.5526 282.73 17.098C283.007 16.6435 283.199 16.125 283.305 15.5426L287.971 15.5639C287.851 16.5653 287.549 17.5312 287.066 18.4616C286.59 19.3849 285.947 20.2124 285.138 20.9439C284.335 21.6683 283.376 22.2436 282.261 22.6697C281.153 23.0888 279.9 23.2983 278.5 23.2983C276.554 23.2983 274.814 22.858 273.28 21.9773C271.753 21.0966 270.546 19.8217 269.658 18.1527C268.777 16.4837 268.337 14.4631 268.337 12.0909C268.337 9.71165 268.785 7.6875 269.679 6.01847C270.574 4.34943 271.789 3.07812 273.323 2.20455C274.857 1.32386 276.583 0.883522 278.5 0.883522C279.765 0.883522 280.937 1.06108 282.016 1.41619C283.103 1.77131 284.065 2.28977 284.903 2.97159C285.741 3.64631 286.423 4.47372 286.949 5.45383C287.481 6.43395 287.822 7.55611 287.971 8.82031ZM291.279 23V1.18182H295.892V10.1839H305.257V1.18182H309.859V23H305.257V13.9872H295.892V23H291.279Z" fill="#E44B76"/>
</svg>
