<svg width="310" height="27" viewBox="0 0 310 27" fill="none" xmlns="http://www.w3.org/2000/svg">
<path d="M17.6852 1.18182V23H15.1284L3.23922 5.86932H3.02616V23H0.384111V1.18182H2.94093L14.8727 18.3551H15.0858V1.18182H17.6852ZM37.2902 1.18182H39.9322V15.6278C39.9322 17.1193 39.5807 18.451 38.8775 19.6229C38.1815 20.7876 37.1979 21.7074 35.9265 22.3821C34.6552 23.0497 33.1638 23.3835 31.4521 23.3835C29.7405 23.3835 28.249 23.0497 26.9777 22.3821C25.7064 21.7074 24.7192 20.7876 24.016 19.6229C23.32 18.451 22.972 17.1193 22.972 15.6278V1.18182H25.614V15.4148C25.614 16.4801 25.8484 17.4283 26.3172 18.2592C26.7859 19.0831 27.4535 19.733 28.32 20.2088C29.1936 20.6776 30.2376 20.9119 31.4521 20.9119C32.6666 20.9119 33.7106 20.6776 34.5842 20.2088C35.4578 19.733 36.1254 19.0831 36.5871 18.2592C37.0558 17.4283 37.2902 16.4801 37.2902 15.4148V1.18182ZM46.4867 1.18182L52.1117 10.2585H52.2822L57.9072 1.18182H61.018L54.1572 12.0909L61.018 23H57.9072L52.2822 14.0938H52.1117L46.4867 23H43.3759L50.4072 12.0909L43.3759 1.18182H46.4867ZM63.2632 3.52557V1.18182H79.6268V3.52557H72.766V23H70.124V3.52557H63.2632ZM99.5141 0.159089L92.4828 26.2812H90.1817L97.2129 0.159089H99.5141Z" fill="black"/>
<path d="M109.033 1.18182H114.722L120.73 15.8409H120.986L126.995 1.18182H132.683V23H128.209V8.79901H128.028L122.382 22.8935H119.335L113.688 8.74574H113.507V23H109.033V1.18182ZM136.484 23V1.18182H151.186V4.98508H141.097V10.1839H150.429V13.9872H141.097V19.1967H151.228V23H136.484ZM159.466 1.18182V23H154.853V1.18182H159.466ZM163.261 23V1.18182H167.874V19.1967H177.228V23H163.261ZM184.896 1.18182V23H180.283V1.18182H184.896ZM200.527 7.45668C200.442 6.5973 200.076 5.92969 199.43 5.45383C198.783 4.97798 197.906 4.74006 196.798 4.74006C196.046 4.74006 195.41 4.84659 194.891 5.05966C194.373 5.26562 193.975 5.55327 193.698 5.92258C193.428 6.2919 193.293 6.71094 193.293 7.17969C193.279 7.57031 193.361 7.91122 193.538 8.20241C193.723 8.49361 193.975 8.74574 194.295 8.95881C194.614 9.16477 194.984 9.34588 195.403 9.50213C195.822 9.65128 196.269 9.77912 196.745 9.88565L198.705 10.3544C199.657 10.5675 200.531 10.8516 201.326 11.2067C202.122 11.5618 202.81 11.9986 203.393 12.517C203.975 13.0355 204.426 13.6463 204.746 14.3494C205.072 15.0526 205.239 15.8587 205.247 16.7678C205.239 18.103 204.898 19.2607 204.224 20.2408C203.556 21.2138 202.59 21.9702 201.326 22.5099C200.069 23.0426 198.553 23.3089 196.777 23.3089C195.016 23.3089 193.482 23.0391 192.175 22.4993C190.875 21.9595 189.859 21.1605 189.128 20.1023C188.403 19.0369 188.023 17.7195 187.988 16.1499H192.452C192.501 16.8814 192.711 17.4922 193.08 17.9822C193.457 18.4652 193.957 18.831 194.582 19.0795C195.215 19.321 195.928 19.4418 196.724 19.4418C197.505 19.4418 198.183 19.3281 198.759 19.1009C199.341 18.8736 199.792 18.5575 200.112 18.1527C200.431 17.7479 200.591 17.2827 200.591 16.7571C200.591 16.267 200.445 15.8551 200.154 15.5213C199.87 15.1875 199.451 14.9034 198.897 14.669C198.35 14.4347 197.679 14.2216 196.884 14.0298L194.508 13.4332C192.668 12.9858 191.216 12.2862 190.151 11.3345C189.085 10.3828 188.556 9.10085 188.563 7.48864C188.556 6.16761 188.908 5.01349 189.618 4.02628C190.335 3.03906 191.319 2.26847 192.569 1.71449C193.819 1.16051 195.239 0.883522 196.83 0.883522C198.45 0.883522 199.863 1.16051 201.07 1.71449C202.285 2.26847 203.229 3.03906 203.904 4.02628C204.579 5.01349 204.927 6.15696 204.948 7.45668H200.527ZM208.349 23V1.18182H223.051V4.98508H212.962V10.1839H222.295V13.9872H212.962V19.1967H223.094V23H208.349ZM230.479 23H225.536L233.068 1.18182H239.012L246.534 23H241.591L236.125 6.16761H235.955L230.479 23ZM230.17 14.424H241.846V18.0249H230.17V14.424ZM249.16 23V1.18182H257.768C259.416 1.18182 260.822 1.47656 261.987 2.06605C263.158 2.64844 264.05 3.47585 264.661 4.5483C265.278 5.61364 265.587 6.86719 265.587 8.30895C265.587 9.75781 265.275 11.0043 264.65 12.0483C264.025 13.0852 263.119 13.8807 261.933 14.4347C260.754 14.9886 259.327 15.2656 257.651 15.2656H251.887V11.5582H256.905C257.786 11.5582 258.517 11.4375 259.099 11.196C259.682 10.9545 260.115 10.5923 260.399 10.1094C260.69 9.62642 260.836 9.02628 260.836 8.30895C260.836 7.58452 260.69 6.97372 260.399 6.47656C260.115 5.9794 259.678 5.60298 259.089 5.3473C258.506 5.08452 257.771 4.95312 256.884 4.95312H253.773V23H249.16ZM260.943 13.071L266.365 23H261.273L255.967 13.071H260.943ZM288.098 8.82031H283.432C283.347 8.21662 283.173 7.6804 282.91 7.21165C282.647 6.73579 282.31 6.33097 281.898 5.99716C281.486 5.66335 281.01 5.40767 280.47 5.23011C279.938 5.05256 279.359 4.96378 278.734 4.96378C277.604 4.96378 276.621 5.24432 275.783 5.8054C274.945 6.35937 274.295 7.16903 273.833 8.23438C273.372 9.29261 273.141 10.5781 273.141 12.0909C273.141 13.6463 273.372 14.9531 273.833 16.0114C274.302 17.0696 274.955 17.8686 275.793 18.4084C276.631 18.9482 277.601 19.218 278.702 19.218C279.32 19.218 279.891 19.1364 280.417 18.973C280.95 18.8097 281.422 18.5717 281.834 18.2592C282.246 17.9396 282.587 17.5526 282.857 17.098C283.134 16.6435 283.325 16.125 283.432 15.5426L288.098 15.5639C287.977 16.5653 287.675 17.5312 287.193 18.4616C286.717 19.3849 286.074 20.2124 285.264 20.9439C284.462 21.6683 283.503 22.2436 282.388 22.6697C281.28 23.0888 280.026 23.2983 278.627 23.2983C276.681 23.2983 274.941 22.858 273.407 21.9773C271.88 21.0966 270.673 19.8217 269.785 18.1527C268.904 16.4837 268.464 14.4631 268.464 12.0909C268.464 9.71165 268.911 7.6875 269.806 6.01847C270.701 4.34943 271.916 3.07812 273.45 2.20455C274.984 1.32386 276.71 0.883522 278.627 0.883522C279.891 0.883522 281.063 1.06108 282.143 1.41619C283.229 1.77131 284.192 2.28977 285.03 2.97159C285.868 3.64631 286.55 4.47372 287.075 5.45383C287.608 6.43395 287.949 7.55611 288.098 8.82031ZM291.406 23V1.18182H296.019V10.1839H305.383V1.18182H309.985V23H305.383V13.9872H296.019V23H291.406Z" fill="#E44B76"/>
</svg>
